<svg width="152" height="134" viewBox="0 0 152 134" fill="none" xmlns="http://www.w3.org/2000/svg">
<path d="M54.804 65.6058L6.75344 74.4714C4.62947 74.8633 2.74606 76.0714 1.51752 77.8299C0.28899 79.5885 -0.184031 81.7534 0.202524 83.8485C0.589077 85.9435 1.80354 87.7971 3.57875 89.0015C5.35395 90.2058 7.54448 90.6622 9.66845 90.2703L25.6853 87.3151L32.9728 126.812C33.3594 128.907 34.5738 130.761 36.349 131.965C38.1242 133.17 40.3148 133.626 42.4387 133.234C44.5627 132.842 46.4461 131.634 47.6746 129.876C48.9032 128.117 49.3762 125.952 48.9896 123.857L41.7021 84.3599L57.719 81.4047C59.8429 81.0128 61.7263 79.8047 62.9549 78.0462C64.1834 76.2876 64.6564 74.1227 64.2699 72.0276C63.8833 69.9326 62.6689 68.079 60.8937 66.8746C59.1184 65.6703 56.9279 65.2139 54.804 65.6058ZM142.16 0.477715L46.0589 18.209C43.935 18.6009 42.0516 19.809 40.823 21.5675C39.5945 23.3261 39.1215 25.491 39.508 27.5861C39.8946 29.6811 41.109 31.5347 42.8842 32.739C44.6594 33.9434 46.85 34.3998 48.9739 34.0079L89.016 26.6199L105.049 113.514C105.435 115.609 106.65 117.463 108.425 118.667C110.2 119.871 112.391 120.328 114.514 119.936C116.638 119.544 118.522 118.336 119.75 116.577C120.979 114.819 121.452 112.654 121.065 110.559L105.033 23.6647L145.075 16.2766C147.199 15.8848 149.082 14.6767 150.311 12.9181C151.539 11.1596 152.012 8.99464 151.626 6.89957C151.239 4.8045 150.025 2.95092 148.25 1.74659C146.474 0.542258 144.284 0.0858312 142.16 0.477715Z" fill="#7065F0" fill-opacity="0.4"/>
</svg>
