<svg width="719" height="117" viewBox="0 0 719 117" fill="none" xmlns="http://www.w3.org/2000/svg">
<path d="M3.07972 99.4064L59.3701 19.3338H16.2541L18.8205 6.33053H103.342L101.802 20.8736L46.0246 101.973H91.0227L88.6274 114.976H0L3.07972 99.4064Z" fill="black"/>
<path d="M131.786 80.5859C131.33 83.0953 130.988 85.4906 130.76 87.7719C130.646 90.0531 130.588 92.1063 130.588 93.9313C130.588 94.9579 130.646 96.0985 130.76 97.3532C130.874 98.6079 131.102 99.8056 131.444 100.946C131.9 101.973 132.471 102.885 133.155 103.684C133.953 104.368 135.037 104.71 136.406 104.71C137.432 104.71 138.573 104.368 139.828 103.684C141.196 102.999 142.508 102.03 143.763 100.775C145.132 99.5204 146.386 97.9806 147.527 96.1555C148.782 94.3305 149.751 92.2774 150.436 89.9961H178.495L174.047 108.303C171.765 109.786 169.142 111.041 166.176 112.067C163.211 113.094 160.074 113.949 156.766 114.634C153.458 115.204 150.093 115.603 146.671 115.832C143.25 116.174 139.999 116.345 136.919 116.345C131.216 116.345 125.912 115.832 121.007 114.805C116.102 113.778 111.825 112.01 108.175 109.501C104.525 106.992 101.616 103.684 99.4491 99.5775C97.396 95.3571 96.3694 90.1672 96.3694 84.0078C96.3694 78.4187 97.2249 72.9436 98.9359 67.5826C100.761 62.2217 103.727 57.488 107.833 53.3817C112.053 49.1614 117.642 45.7965 124.6 43.2871C131.672 40.7777 140.455 39.523 150.949 39.523C162.355 39.523 170.91 41.291 176.613 44.827C182.43 48.3629 185.339 53.895 185.339 61.4232C185.339 64.5029 184.883 67.8678 183.97 71.5178C183.058 75.0538 181.689 78.0765 179.864 80.5859H131.786ZM154.542 60.2255C154.542 56.6896 153.971 54.2942 152.831 53.0395C151.69 51.7848 150.321 51.1575 148.725 51.1575C146.9 51.1575 145.189 51.7848 143.592 53.0395C142.109 54.1802 140.74 55.7771 139.485 57.8302C138.231 59.7693 137.09 62.0506 136.064 64.674C135.037 67.1834 134.181 69.8639 133.497 72.7155H153.002C153.23 71.3467 153.458 69.9209 153.686 68.4381C153.914 67.1834 154.086 65.8147 154.2 64.3318C154.428 62.849 154.542 61.4802 154.542 60.2255Z" fill="black"/>
<path d="M200.374 47.7356C206.191 44.884 212.123 42.8309 218.168 41.5762C224.327 40.2074 231.171 39.523 238.699 39.523C245.999 39.523 252.045 40.0933 256.835 41.234C261.626 42.3746 265.447 44.0285 268.299 46.1957C271.15 48.3629 273.146 50.9294 274.287 53.895C275.428 56.8607 275.998 60.2255 275.998 63.9896C275.998 66.1568 275.827 68.4951 275.485 71.0045C275.257 73.5139 274.972 75.6241 274.629 77.3351L266.588 114.976H239.042L235.962 104.026H234.935C231.285 108.018 227.008 111.098 222.103 113.265C217.312 115.318 212.522 116.345 207.731 116.345C204.994 116.345 202.313 115.946 199.69 115.147C197.066 114.349 194.728 113.151 192.675 111.554C190.622 109.843 188.968 107.733 187.713 105.224C186.458 102.6 185.831 99.4634 185.831 95.8134C185.831 89.8821 187.428 85.2055 190.622 81.7835C193.929 78.2476 198.207 75.6241 203.454 73.9132C208.815 72.0881 214.803 70.9475 221.419 70.4913C228.148 70.035 234.878 69.8069 241.608 69.8069C241.836 68.6662 242.121 67.0694 242.463 65.0162C242.806 62.849 242.977 60.9669 242.977 59.3701C242.977 57.3169 242.406 55.4349 241.266 53.7239C240.239 51.8989 238.015 50.9864 234.593 50.9864C230.601 50.9864 227.635 52.1841 225.696 54.5794C223.871 56.8607 222.673 59.6552 222.103 62.9631H197.123L200.374 47.7356ZM239.726 77.8484H236.646C233.338 77.8484 230.487 78.3046 228.091 79.2171C225.81 80.0156 223.928 81.0992 222.445 82.4679C221.077 83.8367 220.05 85.3765 219.366 87.0875C218.681 88.7985 218.339 90.5094 218.339 92.2204C218.339 94.9579 219.023 97.011 220.392 98.3798C221.875 99.7486 223.586 100.433 225.525 100.433C227.92 100.433 230.259 99.5775 232.54 97.8665C234.935 96.1556 236.418 93.8743 236.988 91.0227L239.726 77.8484Z" fill="black"/>
<path d="M315.651 114.976H280.747L305.043 0H340.117L315.651 114.976Z" fill="black"/>
<path d="M430.75 65.3584H475.064L465.141 114.976H444.951L441.701 104.026H441.016C438.051 107.448 434.515 110.356 430.408 112.752C426.416 115.147 421.169 116.345 414.668 116.345C409.649 116.345 404.801 115.546 400.124 113.949C395.562 112.239 391.456 109.615 387.806 106.079C384.27 102.429 381.418 97.6954 379.251 91.8782C377.084 86.0609 376 79.046 376 70.8335C376 61.9365 377.369 53.4958 380.106 45.5113C382.844 37.5269 386.95 30.512 392.425 24.4666C397.9 18.3072 404.744 13.4595 412.957 9.92353C421.169 6.38756 430.75 4.61957 441.701 4.61957C450.141 4.61957 457.498 5.58911 463.772 7.5282C470.045 9.46728 475.977 11.6345 481.566 14.0298L475.064 47.2223H446.149C446.263 45.9676 446.434 44.4848 446.662 42.7738C446.89 41.0629 447.062 39.2949 447.176 37.4699C447.29 35.5308 447.404 33.6487 447.518 31.8237C447.632 29.9987 447.689 28.4018 447.689 27.0331C447.689 26.1206 447.632 25.094 447.518 23.9533C447.404 22.6986 447.119 21.501 446.662 20.3603C446.206 19.2197 445.522 18.3072 444.609 17.6228C443.697 16.8244 442.385 16.4251 440.674 16.4251C437.708 16.4251 434.971 17.6798 432.461 20.1892C430.066 22.5846 427.899 25.8354 425.96 29.9417C424.021 33.9339 422.31 38.4964 420.827 43.6293C419.458 48.7622 418.261 54.0091 417.234 59.3701C416.321 64.617 415.58 69.8069 415.01 74.9397C414.553 79.9585 414.325 84.35 414.325 88.1141C414.325 89.2547 414.382 90.6805 414.496 92.3915C414.611 94.1024 414.953 95.8134 415.523 97.5243C416.207 99.1212 417.12 100.547 418.261 101.802C419.515 102.942 421.283 103.513 423.564 103.513C427.329 103.513 430.979 101.46 434.515 97.3532C438.051 93.2469 440.731 86.4031 442.556 76.8218H428.184L430.75 65.3584Z" fill="#175CFF"/>
<path d="M493.645 41.4051H521.534L524.1 54.2372H525.298C527.921 50.1309 531.286 46.652 535.393 43.8004C539.499 40.9488 544.917 39.523 551.647 39.523C552.103 39.523 552.787 39.58 553.7 39.6941C554.726 39.6941 555.81 39.8652 556.951 40.2074C558.205 40.4355 559.46 40.8347 560.715 41.4051C562.083 41.8613 563.395 42.5457 564.65 43.4582L557.122 78.7038H538.472C538.244 71.6319 537.617 66.7272 536.59 63.9896C535.564 61.1381 533.91 59.7123 531.629 59.7123C530.488 59.7123 529.233 59.9974 527.864 60.5677C526.61 61.024 525.298 62.1076 523.929 63.8185L512.979 114.976H478.076L493.645 41.4051Z" fill="#175CFF"/>
<path d="M595.515 114.976H560.783L576.353 41.4051H611.427L595.515 114.976ZM615.876 18.9916C615.876 21.615 615.305 23.8963 614.165 25.8354C613.138 27.7745 611.712 29.4284 609.887 30.7972C608.176 32.1659 606.18 33.1925 603.899 33.8769C601.618 34.5612 599.279 34.9034 596.884 34.9034C592.321 34.9034 588.5 33.8198 585.421 31.6526C582.341 29.4854 580.801 26.0635 580.801 21.3869C580.801 18.8775 581.314 16.6533 582.341 14.7142C583.367 12.6611 584.736 11.0071 586.447 9.75244C588.272 8.38367 590.325 7.3571 592.607 6.67272C595.002 5.98834 597.454 5.64614 599.964 5.64614C604.412 5.64614 608.176 6.72975 611.256 8.89696C614.336 11.0642 615.876 14.429 615.876 18.9916Z" fill="#175CFF"/>
<path d="M683.795 0H718.87L694.403 114.976H666.686L663.606 104.026H662.408C661.724 105.052 660.64 106.307 659.157 107.79C657.789 109.159 656.021 110.528 653.853 111.896C651.686 113.151 649.12 114.178 646.154 114.976C643.188 115.889 639.767 116.345 635.888 116.345C631.896 116.345 628.474 115.774 625.623 114.634C622.885 113.379 620.604 111.725 618.779 109.672C617.068 107.619 615.813 105.167 615.015 102.315C614.216 99.3493 613.817 96.1555 613.817 92.7336C613.817 91.2508 613.931 88.9125 614.159 85.7187C614.387 82.4109 614.901 78.8179 615.699 74.9397C616.612 70.9475 617.866 66.8983 619.463 62.792C621.174 58.5716 623.398 54.7505 626.136 51.3286C628.988 47.9067 632.466 45.1121 636.573 42.9449C640.679 40.6636 645.641 39.523 651.458 39.523C653.283 39.523 655.222 39.6941 657.275 40.0363C659.328 40.3785 661.268 41.0058 663.093 41.9183C665.032 42.8309 666.743 44.1426 668.225 45.8535C669.708 47.5645 670.792 49.7887 671.476 52.5263H672.674L683.795 0ZM662.921 56.2903C660.184 56.2903 657.903 57.8302 656.078 60.9099C654.253 63.8756 652.77 67.3545 651.629 71.3467C650.489 75.339 649.633 79.3312 649.063 83.3234C648.606 87.3156 648.378 90.2813 648.378 92.2204C648.378 94.5016 648.721 96.4407 649.405 98.0376C650.089 99.5204 651.401 100.262 653.34 100.262C654.481 100.262 655.564 100.034 656.591 99.5775C657.732 99.0071 658.758 98.3798 659.671 97.6954C660.697 96.897 661.553 96.0985 662.237 95.3001C662.921 94.5016 663.492 93.8172 663.948 93.2469L670.621 62.1076C669.822 60.8529 668.739 59.5982 667.37 58.3435C666.115 56.9747 664.632 56.2903 662.921 56.2903Z" fill="#175CFF"/>
</svg>
